#define arrow_inside_8_width 8
#define arrow_inside_8_height 8
static unsigned char arrow_inside_8_bits[] = {
   0x00, 0x00, 0x00, 0x78, 0x18, 0x28, 0x48, 0x80 };
