#define arrow_receive_8_width 8
#define arrow_receive_8_height 8
static unsigned char arrow_receive_8_bits[] = {
   0x08, 0x08, 0x08, 0x08, 0x08, 0x3e, 0x1c, 0x08 };
