#define arrow_outside_8_width 8
#define arrow_outside_8_height 8
static unsigned char arrow_outside_8_bits[] = {
   0xf0, 0xc0, 0xa0, 0x90, 0x08, 0x00, 0x00, 0x00 };
