#define blow_width 16
#define blow_height 16
static unsigned char blow_bits[] = {
   0x00, 0x00, 0x00, 0x1e, 0x00, 0x32, 0x00, 0x22, 0x00, 0x30, 0xff, 0x1f,
   0x00, 0x00, 0xff, 0x7f, 0x00, 0xc0, 0xff, 0x89, 0x00, 0xdb, 0x20, 0x72,
   0x60, 0x03, 0xc0, 0x01, 0x00, 0x00, 0x00, 0x00 };
