#define fan_8_width 8
#define fan_8_height 8
static unsigned char fan_8_bits[] = {
   0x0e, 0x8c, 0xd8, 0xe4, 0x27, 0x1b, 0x31, 0x70 };
