#define home_outside_width 16
#define home_outside_height 16
static unsigned char home_outside_bits[] = {
   0x00, 0xe0, 0x80, 0xe1, 0x40, 0xe2, 0x20, 0x04, 0x10, 0x08, 0x08, 0x10,
   0x04, 0x20, 0x06, 0x60, 0x04, 0x20, 0x04, 0x20, 0x04, 0x20, 0x04, 0x20,
   0x04, 0x20, 0x04, 0x20, 0x04, 0x20, 0xfc, 0x3f };
