#define home_inside_width 16
#define home_inside_height 16
static unsigned char home_inside_bits[] = {
   0x00, 0x00, 0x80, 0x01, 0x40, 0x02, 0x20, 0x04, 0x10, 0x08, 0x08, 0x10,
   0x04, 0x20, 0x06, 0x60, 0x04, 0x20, 0x04, 0x20, 0xe4, 0x20, 0xe4, 0x20,
   0xe4, 0x20, 0x04, 0x20, 0x04, 0x20, 0xfc, 0x3f };
